<?xml version="1.0" encoding="UTF-8" standalone="no"?>
<!DOCTYPE svg PUBLIC "-//W3C//DTD SVG 1.1//EN"
 "http://www.w3.org/Graphics/SVG/1.1/DTD/svg11.dtd">
<!-- Generated by graphviz version 2.44.0 (20200408.0750)
 -->
<!-- Title: dependency&#45;cruiser output Pages: 1 -->
<svg width="482pt" height="327pt"
 viewBox="0.00 0.00 482.00 327.00" xmlns="http://www.w3.org/2000/svg" xmlns:xlink="http://www.w3.org/1999/xlink">
<g id="graph0" class="graph" transform="scale(1 1) rotate(0) translate(4 323)">
<title>dependency&#45;cruiser output</title>
<polygon fill="white" stroke="transparent" points="-4,4 -4,-323 478,-323 478,4 -4,4"/>
<g id="clust1" class="cluster">
<title>cluster_client</title>
<path fill="#ffffff" stroke="black" stroke-width="2" d="M20,-8C20,-8 454,-8 454,-8 460,-8 466,-14 466,-20 466,-20 466,-299 466,-299 466,-305 460,-311 454,-311 454,-311 20,-311 20,-311 14,-311 8,-305 8,-299 8,-299 8,-20 8,-20 8,-14 14,-8 20,-8"/>
<text text-anchor="middle" x="237" y="-298.9" font-family="Helvetica,sans-Serif" font-weight="bold" font-size="9.00">client</text>
</g>
<g id="clust2" class="cluster">
<title>cluster_client/src</title>
<path fill="#ffffff" stroke="black" stroke-width="2" d="M28,-16C28,-16 446,-16 446,-16 452,-16 458,-22 458,-28 458,-28 458,-272 458,-272 458,-278 452,-284 446,-284 446,-284 28,-284 28,-284 22,-284 16,-278 16,-272 16,-272 16,-28 16,-28 16,-22 22,-16 28,-16"/>
<text text-anchor="middle" x="237" y="-271.9" font-family="Helvetica,sans-Serif" font-weight="bold" font-size="9.00">src</text>
</g>
<g id="clust3" class="cluster">
<title>cluster_client/src/components</title>
<path fill="#ffffff" stroke="black" stroke-width="2" d="M364.5,-24C364.5,-24 410.5,-24 410.5,-24 416.5,-24 422.5,-30 422.5,-36 422.5,-36 422.5,-65 422.5,-65 422.5,-71 416.5,-77 410.5,-77 410.5,-77 364.5,-77 364.5,-77 358.5,-77 352.5,-71 352.5,-65 352.5,-65 352.5,-36 352.5,-36 352.5,-30 358.5,-24 364.5,-24"/>
<text text-anchor="middle" x="387.5" y="-64.9" font-family="Helvetica,sans-Serif" font-weight="bold" font-size="9.00">components</text>
</g>
<g id="clust4" class="cluster">
<title>cluster_client/src/handlers</title>
<path fill="#ffffff" stroke="black" stroke-width="2" d="M225,-35C225,-35 305,-35 305,-35 311,-35 317,-41 317,-47 317,-47 317,-169 317,-169 317,-175 311,-181 305,-181 305,-181 225,-181 225,-181 219,-181 213,-175 213,-169 213,-169 213,-47 213,-47 213,-41 219,-35 225,-35"/>
<text text-anchor="middle" x="265" y="-168.9" font-family="Helvetica,sans-Serif" font-weight="bold" font-size="9.00">handlers</text>
</g>
<g id="clust5" class="cluster">
<title>cluster_client/src/init</title>
<path fill="#ffffff" stroke="black" stroke-width="2" d="M36,-81C36,-81 82,-81 82,-81 88,-81 94,-87 94,-93 94,-93 94,-122 94,-122 94,-128 88,-134 82,-134 82,-134 36,-134 36,-134 30,-134 24,-128 24,-122 24,-122 24,-93 24,-93 24,-87 30,-81 36,-81"/>
<text text-anchor="middle" x="59" y="-121.9" font-family="Helvetica,sans-Serif" font-weight="bold" font-size="9.00">init</text>
</g>
<g id="clust6" class="cluster">
<title>cluster_client/src/listeners</title>
<path fill="#ffffff" stroke="black" stroke-width="2" d="M114,-35C114,-35 193,-35 193,-35 199,-35 205,-41 205,-47 205,-47 205,-169 205,-169 205,-175 199,-181 193,-181 193,-181 114,-181 114,-181 108,-181 102,-175 102,-169 102,-169 102,-47 102,-47 102,-41 108,-35 114,-35"/>
<text text-anchor="middle" x="153.5" y="-168.9" font-family="Helvetica,sans-Serif" font-weight="bold" font-size="9.00">listeners</text>
</g>
<g id="clust7" class="cluster">
<title>cluster_client/src/logic</title>
<path fill="#ffffff" stroke="black" stroke-width="2" d="M337,-111C337,-111 438,-111 438,-111 444,-111 450,-117 450,-123 450,-123 450,-245 450,-245 450,-251 444,-257 438,-257 438,-257 337,-257 337,-257 331,-257 325,-251 325,-245 325,-245 325,-123 325,-123 325,-117 331,-111 337,-111"/>
<text text-anchor="middle" x="387.5" y="-244.9" font-family="Helvetica,sans-Serif" font-weight="bold" font-size="9.00">logic</text>
</g>
<!-- client/src/components/render.js -->
<g id="node1" class="node">
<title>client/src/components/render.js</title>
<g id="a_node1"><a xlink:href="../client/src/components/render.js" xlink:title="render.js">
<path fill="#ffffcc" stroke="black" d="M408.3,-50.3C408.3,-50.3 366.7,-50.3 366.7,-50.3 363.6,-50.3 360.5,-47.2 360.5,-44.1 360.5,-44.1 360.5,-37.9 360.5,-37.9 360.5,-34.8 363.6,-31.7 366.7,-31.7 366.7,-31.7 408.3,-31.7 408.3,-31.7 411.4,-31.7 414.5,-34.8 414.5,-37.9 414.5,-37.9 414.5,-44.1 414.5,-44.1 414.5,-47.2 411.4,-50.3 408.3,-50.3"/>
<text text-anchor="middle" x="387.5" y="-38.3" font-family="Helvetica,sans-Serif" font-size="9.00">render.js</text>
</a>
</g>
</g>
<!-- client/src/data.js -->
<g id="node2" class="node">
<title>client/src/data.js</title>
<g id="a_node2"><a xlink:href="../client/src/data.js" xlink:title="data.js">
<path fill="#ffffcc" stroke="black" d="M408.3,-103.3C408.3,-103.3 366.7,-103.3 366.7,-103.3 363.6,-103.3 360.5,-100.2 360.5,-97.1 360.5,-97.1 360.5,-90.9 360.5,-90.9 360.5,-87.8 363.6,-84.7 366.7,-84.7 366.7,-84.7 408.3,-84.7 408.3,-84.7 411.4,-84.7 414.5,-87.8 414.5,-90.9 414.5,-90.9 414.5,-97.1 414.5,-97.1 414.5,-100.2 411.4,-103.3 408.3,-103.3"/>
<text text-anchor="middle" x="387.5" y="-91.3" font-family="Helvetica,sans-Serif" font-size="9.00">data.js</text>
</a>
</g>
</g>
<!-- client/src/handlers/handler&#45;add.js -->
<g id="node3" class="node">
<title>client/src/handlers/handler&#45;add.js</title>
<g id="a_node3"><a xlink:href="../client/src/handlers/handler-add.js" xlink:title="handler&#45;add.js">
<path fill="#ffffcc" stroke="black" d="M295.31,-154.3C295.31,-154.3 234.69,-154.3 234.69,-154.3 231.59,-154.3 228.49,-151.2 228.49,-148.1 228.49,-148.1 228.49,-141.9 228.49,-141.9 228.49,-138.8 231.59,-135.7 234.69,-135.7 234.69,-135.7 295.31,-135.7 295.31,-135.7 298.41,-135.7 301.51,-138.8 301.51,-141.9 301.51,-141.9 301.51,-148.1 301.51,-148.1 301.51,-151.2 298.41,-154.3 295.31,-154.3"/>
<text text-anchor="middle" x="265" y="-142.3" font-family="Helvetica,sans-Serif" font-size="9.00">handler&#45;add.js</text>
</a>
</g>
</g>
<!-- client/src/handlers/handler&#45;add.js&#45;&gt;client/src/components/render.js -->
<g id="edge1" class="edge">
<title>client/src/handlers/handler&#45;add.js&#45;&gt;client/src/components/render.js</title>
<path fill="none" stroke="#000000" stroke-width="2" stroke-opacity="0.200000" d="M301.65,-139.68C307.53,-137.3 313,-133.88 317,-129 338.25,-103.07 302.54,-78.88 325,-54 332.34,-45.87 343.37,-42.12 354.07,-40.56"/>
<polygon fill="#000000" fill-opacity="0.200000" stroke="#000000" stroke-width="2" stroke-opacity="0.200000" points="354.56,-42.62 360.3,-39.88 354.11,-38.44 354.56,-42.62"/>
</g>
<!-- client/src/handlers/handler&#45;add.js&#45;&gt;client/src/data.js -->
<g id="edge2" class="edge">
<title>client/src/handlers/handler&#45;add.js&#45;&gt;client/src/data.js</title>
<path fill="none" stroke="#000000" stroke-width="2" stroke-opacity="0.200000" d="M301.74,-138.37C307.33,-136.11 312.68,-133.07 317,-129 324.27,-122.15 317.46,-114.55 325,-108 333.09,-100.98 343.97,-97.28 354.33,-95.38"/>
<polygon fill="#000000" fill-opacity="0.200000" stroke="#000000" stroke-width="2" stroke-opacity="0.200000" points="354.73,-97.45 360.35,-94.47 354.1,-93.3 354.73,-97.45"/>
</g>
<!-- client/src/logic/format&#45;sentence.js -->
<g id="node4" class="node">
<title>client/src/logic/format&#45;sentence.js</title>
<g id="a_node4"><a xlink:href="../client/src/logic/format-sentence.js" xlink:title="format&#45;sentence.js">
<path fill="#ffffcc" stroke="black" d="M426.31,-168.3C426.31,-168.3 348.69,-168.3 348.69,-168.3 345.59,-168.3 342.49,-165.2 342.49,-162.1 342.49,-162.1 342.49,-155.9 342.49,-155.9 342.49,-152.8 345.59,-149.7 348.69,-149.7 348.69,-149.7 426.31,-149.7 426.31,-149.7 429.41,-149.7 432.51,-152.8 432.51,-155.9 432.51,-155.9 432.51,-162.1 432.51,-162.1 432.51,-165.2 429.41,-168.3 426.31,-168.3"/>
<text text-anchor="middle" x="387.5" y="-156.3" font-family="Helvetica,sans-Serif" font-size="9.00">format&#45;sentence.js</text>
</a>
</g>
</g>
<!-- client/src/handlers/handler&#45;add.js&#45;&gt;client/src/logic/format&#45;sentence.js -->
<g id="edge3" class="edge">
<title>client/src/handlers/handler&#45;add.js&#45;&gt;client/src/logic/format&#45;sentence.js</title>
<path fill="none" stroke="#000000" stroke-width="2" stroke-opacity="0.200000" d="M301.83,-149.16C312.7,-150.43 324.84,-151.84 336.47,-153.19"/>
<polygon fill="#000000" fill-opacity="0.200000" stroke="#000000" stroke-width="2" stroke-opacity="0.200000" points="336.29,-155.28 342.49,-153.89 336.77,-151.11 336.29,-155.28"/>
</g>
<!-- client/src/logic/format&#45;words.js -->
<g id="node5" class="node">
<title>client/src/logic/format&#45;words.js</title>
<g id="a_node5"><a xlink:href="../client/src/logic/format-words.js" xlink:title="format&#45;words.js">
<path fill="#ffffcc" stroke="black" d="M420.29,-230.3C420.29,-230.3 354.7,-230.3 354.7,-230.3 351.6,-230.3 348.5,-227.2 348.5,-224.1 348.5,-224.1 348.5,-217.9 348.5,-217.9 348.5,-214.8 351.6,-211.7 354.7,-211.7 354.7,-211.7 420.29,-211.7 420.29,-211.7 423.39,-211.7 426.49,-214.8 426.49,-217.9 426.49,-217.9 426.49,-224.1 426.49,-224.1 426.49,-227.2 423.39,-230.3 420.29,-230.3"/>
<text text-anchor="middle" x="387.5" y="-218.3" font-family="Helvetica,sans-Serif" font-size="9.00">format&#45;words.js</text>
</a>
</g>
</g>
<!-- client/src/handlers/handler&#45;add.js&#45;&gt;client/src/logic/format&#45;words.js -->
<g id="edge4" class="edge">
<title>client/src/handlers/handler&#45;add.js&#45;&gt;client/src/logic/format&#45;words.js</title>
<path fill="none" stroke="#000000" stroke-width="2" stroke-opacity="0.200000" d="M272.82,-154.69C282.76,-168.06 302.49,-191.99 325,-205 330.37,-208.11 336.35,-210.62 342.42,-212.65"/>
<polygon fill="#000000" fill-opacity="0.200000" stroke="#000000" stroke-width="2" stroke-opacity="0.200000" points="342.13,-214.76 348.49,-214.53 343.37,-210.75 342.13,-214.76"/>
</g>
<!-- client/src/logic/validityCheck.js -->
<g id="node6" class="node">
<title>client/src/logic/validityCheck.js</title>
<g id="a_node6"><a xlink:href="../client/src/logic/validityCheck.js" xlink:title="validityCheck.js">
<path fill="#ffffcc" stroke="black" d="M420.3,-199.3C420.3,-199.3 354.7,-199.3 354.7,-199.3 351.6,-199.3 348.5,-196.2 348.5,-193.1 348.5,-193.1 348.5,-186.9 348.5,-186.9 348.5,-183.8 351.6,-180.7 354.7,-180.7 354.7,-180.7 420.3,-180.7 420.3,-180.7 423.4,-180.7 426.5,-183.8 426.5,-186.9 426.5,-186.9 426.5,-193.1 426.5,-193.1 426.5,-196.2 423.4,-199.3 420.3,-199.3"/>
<text text-anchor="middle" x="387.5" y="-187.3" font-family="Helvetica,sans-Serif" font-size="9.00">validityCheck.js</text>
</a>
</g>
</g>
<!-- client/src/handlers/handler&#45;add.js&#45;&gt;client/src/logic/validityCheck.js -->
<g id="edge5" class="edge">
<title>client/src/handlers/handler&#45;add.js&#45;&gt;client/src/logic/validityCheck.js</title>
<path fill="none" stroke="#000000" stroke-width="2" stroke-opacity="0.200000" d="M282.64,-154.31C294.24,-160.52 310.24,-168.52 325,-174 330.59,-176.07 336.55,-177.99 342.49,-179.71"/>
<polygon fill="#000000" fill-opacity="0.200000" stroke="#000000" stroke-width="2" stroke-opacity="0.200000" points="342.05,-181.77 348.4,-181.37 343.19,-177.73 342.05,-181.77"/>
</g>
<!-- client/src/handlers/handler&#45;load.js -->
<g id="node7" class="node">
<title>client/src/handlers/handler&#45;load.js</title>
<g id="a_node7"><a xlink:href="../client/src/handlers/handler-load.js" xlink:title="handler&#45;load.js">
<path fill="#ffffcc" stroke="black" d="M296.31,-92.3C296.31,-92.3 233.69,-92.3 233.69,-92.3 230.59,-92.3 227.49,-89.2 227.49,-86.1 227.49,-86.1 227.49,-79.9 227.49,-79.9 227.49,-76.8 230.59,-73.7 233.69,-73.7 233.69,-73.7 296.31,-73.7 296.31,-73.7 299.41,-73.7 302.51,-76.8 302.51,-79.9 302.51,-79.9 302.51,-86.1 302.51,-86.1 302.51,-89.2 299.41,-92.3 296.31,-92.3"/>
<text text-anchor="middle" x="265" y="-80.3" font-family="Helvetica,sans-Serif" font-size="9.00">handler&#45;load.js</text>
</a>
</g>
</g>
<!-- client/src/handlers/handler&#45;load.js&#45;&gt;client/src/components/render.js -->
<g id="edge6" class="edge">
<title>client/src/handlers/handler&#45;load.js&#45;&gt;client/src/components/render.js</title>
<path fill="none" stroke="#000000" stroke-width="2" stroke-opacity="0.200000" d="M302.71,-75.03C307.81,-72.94 312.75,-70.31 317,-67 322.35,-62.83 319.45,-57.91 325,-54 333.5,-48.01 344.18,-44.68 354.25,-42.86"/>
<polygon fill="#000000" fill-opacity="0.200000" stroke="#000000" stroke-width="2" stroke-opacity="0.200000" points="354.81,-44.9 360.42,-41.91 354.17,-40.75 354.81,-44.9"/>
</g>
<!-- client/src/handlers/handler&#45;load.js&#45;&gt;client/src/data.js -->
<g id="edge7" class="edge">
<title>client/src/handlers/handler&#45;load.js&#45;&gt;client/src/data.js</title>
<path fill="none" stroke="#000000" stroke-width="2" stroke-opacity="0.200000" d="M302.81,-86.36C319.18,-87.85 338.29,-89.6 354.12,-91.04"/>
<polygon fill="#000000" fill-opacity="0.200000" stroke="#000000" stroke-width="2" stroke-opacity="0.200000" points="354.07,-93.15 360.23,-91.6 354.45,-88.97 354.07,-93.15"/>
</g>
<!-- client/src/handlers/handler&#45;remove.js -->
<g id="node8" class="node">
<title>client/src/handlers/handler&#45;remove.js</title>
<g id="a_node8"><a xlink:href="../client/src/handlers/handler-remove.js" xlink:title="handler&#45;remove.js">
<path fill="#ffffcc" stroke="black" d="M302.8,-123.3C302.8,-123.3 227.19,-123.3 227.19,-123.3 224.09,-123.3 220.99,-120.2 220.99,-117.1 220.99,-117.1 220.99,-110.9 220.99,-110.9 220.99,-107.8 224.09,-104.7 227.19,-104.7 227.19,-104.7 302.8,-104.7 302.8,-104.7 305.9,-104.7 309,-107.8 309,-110.9 309,-110.9 309,-117.1 309,-117.1 309,-120.2 305.9,-123.3 302.8,-123.3"/>
<text text-anchor="middle" x="265" y="-111.3" font-family="Helvetica,sans-Serif" font-size="9.00">handler&#45;remove.js</text>
</a>
</g>
</g>
<!-- client/src/handlers/handler&#45;remove.js&#45;&gt;client/src/components/render.js -->
<g id="edge8" class="edge">
<title>client/src/handlers/handler&#45;remove.js&#45;&gt;client/src/components/render.js</title>
<path fill="none" stroke="#000000" stroke-width="2" stroke-opacity="0.200000" d="M309.36,-104.41C312.19,-102.62 314.79,-100.5 317,-98 330.16,-83.1 311.15,-68.25 325,-54 332.57,-46.22 343.54,-42.52 354.13,-40.91"/>
<polygon fill="#000000" fill-opacity="0.200000" stroke="#000000" stroke-width="2" stroke-opacity="0.200000" points="354.57,-42.97 360.29,-40.18 354.08,-38.8 354.57,-42.97"/>
</g>
<!-- client/src/handlers/handler&#45;remove.js&#45;&gt;client/src/data.js -->
<g id="edge9" class="edge">
<title>client/src/handlers/handler&#45;remove.js&#45;&gt;client/src/data.js</title>
<path fill="none" stroke="#000000" stroke-width="2" stroke-opacity="0.200000" d="M309.16,-106.84C324.04,-104.37 340.43,-101.65 354.27,-99.35"/>
<polygon fill="#000000" fill-opacity="0.200000" stroke="#000000" stroke-width="2" stroke-opacity="0.200000" points="354.87,-101.38 360.44,-98.32 354.18,-97.24 354.87,-101.38"/>
</g>
<!-- client/src/logic/is&#45;book&#45;not&#45;in&#45;the&#45;list.js -->
<g id="node9" class="node">
<title>client/src/logic/is&#45;book&#45;not&#45;in&#45;the&#45;list.js</title>
<g id="a_node9"><a xlink:href="../client/src/logic/is-book-not-in-the-list.js" xlink:title="is&#45;book&#45;not&#45;in&#45;the&#45;list.js">
<path fill="#ffffcc" stroke="black" d="M435.79,-137.3C435.79,-137.3 339.2,-137.3 339.2,-137.3 336.1,-137.3 333,-134.2 333,-131.1 333,-131.1 333,-124.9 333,-124.9 333,-121.8 336.1,-118.7 339.2,-118.7 339.2,-118.7 435.79,-118.7 435.79,-118.7 438.89,-118.7 441.99,-121.8 441.99,-124.9 441.99,-124.9 441.99,-131.1 441.99,-131.1 441.99,-134.2 438.89,-137.3 435.79,-137.3"/>
<text text-anchor="middle" x="387.5" y="-125.3" font-family="Helvetica,sans-Serif" font-size="9.00">is&#45;book&#45;not&#45;in&#45;the&#45;list.js</text>
</a>
</g>
</g>
<!-- client/src/handlers/handler&#45;remove.js&#45;&gt;client/src/logic/is&#45;book&#45;not&#45;in&#45;the&#45;list.js -->
<g id="edge10" class="edge">
<title>client/src/handlers/handler&#45;remove.js&#45;&gt;client/src/logic/is&#45;book&#45;not&#45;in&#45;the&#45;list.js</title>
<path fill="none" stroke="#000000" stroke-width="2" stroke-opacity="0.200000" d="M309.16,-119.01C314.94,-119.69 320.94,-120.38 326.93,-121.08"/>
<polygon fill="#000000" fill-opacity="0.200000" stroke="#000000" stroke-width="2" stroke-opacity="0.200000" points="326.71,-123.17 332.91,-121.77 327.19,-119 326.71,-123.17"/>
</g>
<!-- client/src/handlers/handler&#45;style.js -->
<g id="node10" class="node">
<title>client/src/handlers/handler&#45;style.js</title>
<g id="a_node10"><a xlink:href="../client/src/handlers/handler-style.js" xlink:title="handler&#45;style.js">
<path fill="#ffffcc" stroke="black" d="M296.8,-61.3C296.8,-61.3 233.19,-61.3 233.19,-61.3 230.09,-61.3 226.99,-58.2 226.99,-55.1 226.99,-55.1 226.99,-48.9 226.99,-48.9 226.99,-45.8 230.09,-42.7 233.19,-42.7 233.19,-42.7 296.8,-42.7 296.8,-42.7 299.9,-42.7 303,-45.8 303,-48.9 303,-48.9 303,-55.1 303,-55.1 303,-58.2 299.9,-61.3 296.8,-61.3"/>
<text text-anchor="middle" x="265" y="-49.3" font-family="Helvetica,sans-Serif" font-size="9.00">handler&#45;style.js</text>
</a>
</g>
</g>
<!-- client/src/init/index.js -->
<g id="node11" class="node">
<title>client/src/init/index.js</title>
<g id="a_node11"><a xlink:href="../client/src/init/index.js" xlink:title="index.js">
<path fill="#ffffcc" stroke="black" d="M79.8,-107.3C79.8,-107.3 38.2,-107.3 38.2,-107.3 35.1,-107.3 32,-104.2 32,-101.1 32,-101.1 32,-94.9 32,-94.9 32,-91.8 35.1,-88.7 38.2,-88.7 38.2,-88.7 79.8,-88.7 79.8,-88.7 82.9,-88.7 86,-91.8 86,-94.9 86,-94.9 86,-101.1 86,-101.1 86,-104.2 82.9,-107.3 79.8,-107.3"/>
<text text-anchor="middle" x="59" y="-95.3" font-family="Helvetica,sans-Serif" font-size="9.00">index.js</text>
</a>
</g>
</g>
<!-- client/src/listeners/listener&#45;add.js -->
<g id="node12" class="node">
<title>client/src/listeners/listener&#45;add.js</title>
<g id="a_node12"><a xlink:href="../client/src/listeners/listener-add.js" xlink:title="listener&#45;add.js">
<path fill="#ffffcc" stroke="black" d="M183.3,-154.3C183.3,-154.3 123.69,-154.3 123.69,-154.3 120.59,-154.3 117.49,-151.2 117.49,-148.1 117.49,-148.1 117.49,-141.9 117.49,-141.9 117.49,-138.8 120.59,-135.7 123.69,-135.7 123.69,-135.7 183.3,-135.7 183.3,-135.7 186.4,-135.7 189.5,-138.8 189.5,-141.9 189.5,-141.9 189.5,-148.1 189.5,-148.1 189.5,-151.2 186.4,-154.3 183.3,-154.3"/>
<text text-anchor="middle" x="153.5" y="-142.3" font-family="Helvetica,sans-Serif" font-size="9.00">listener&#45;add.js</text>
</a>
</g>
</g>
<!-- client/src/init/index.js&#45;&gt;client/src/listeners/listener&#45;add.js -->
<g id="edge11" class="edge">
<title>client/src/init/index.js&#45;&gt;client/src/listeners/listener&#45;add.js</title>
<path fill="none" stroke="#000000" stroke-width="2" stroke-opacity="0.200000" d="M70.75,-107.49C78.87,-114.26 90.53,-123.16 102,-129 105.07,-130.57 108.33,-132.02 111.65,-133.35"/>
<polygon fill="#000000" fill-opacity="0.200000" stroke="#000000" stroke-width="2" stroke-opacity="0.200000" points="111.31,-135.47 117.67,-135.63 112.8,-131.54 111.31,-135.47"/>
</g>
<!-- client/src/listeners/listener&#45;load.js -->
<g id="node13" class="node">
<title>client/src/listeners/listener&#45;load.js</title>
<g id="a_node13"><a xlink:href="../client/src/listeners/listener-load.js" xlink:title="listener&#45;load.js">
<path fill="#ffffcc" stroke="black" d="M184.3,-92.3C184.3,-92.3 122.7,-92.3 122.7,-92.3 119.6,-92.3 116.5,-89.2 116.5,-86.1 116.5,-86.1 116.5,-79.9 116.5,-79.9 116.5,-76.8 119.6,-73.7 122.7,-73.7 122.7,-73.7 184.3,-73.7 184.3,-73.7 187.4,-73.7 190.5,-76.8 190.5,-79.9 190.5,-79.9 190.5,-86.1 190.5,-86.1 190.5,-89.2 187.4,-92.3 184.3,-92.3"/>
<text text-anchor="middle" x="153.5" y="-80.3" font-family="Helvetica,sans-Serif" font-size="9.00">listener&#45;load.js</text>
</a>
</g>
</g>
<!-- client/src/init/index.js&#45;&gt;client/src/listeners/listener&#45;load.js -->
<g id="edge12" class="edge">
<title>client/src/init/index.js&#45;&gt;client/src/listeners/listener&#45;load.js</title>
<path fill="none" stroke="#000000" stroke-width="2" stroke-opacity="0.200000" d="M86.26,-93.74C93.66,-92.54 101.92,-91.2 110.01,-89.89"/>
<polygon fill="#000000" fill-opacity="0.200000" stroke="#000000" stroke-width="2" stroke-opacity="0.200000" points="110.57,-91.93 116.16,-88.89 109.9,-87.78 110.57,-91.93"/>
</g>
<!-- client/src/listeners/listener&#45;remove.js -->
<g id="node14" class="node">
<title>client/src/listeners/listener&#45;remove.js</title>
<g id="a_node14"><a xlink:href="../client/src/listeners/listener-remove.js" xlink:title="listener&#45;remove.js">
<path fill="#ffffcc" stroke="black" d="M190.79,-123.3C190.79,-123.3 116.2,-123.3 116.2,-123.3 113.1,-123.3 110,-120.2 110,-117.1 110,-117.1 110,-110.9 110,-110.9 110,-107.8 113.1,-104.7 116.2,-104.7 116.2,-104.7 190.79,-104.7 190.79,-104.7 193.89,-104.7 196.99,-107.8 196.99,-110.9 196.99,-110.9 196.99,-117.1 196.99,-117.1 196.99,-120.2 193.89,-123.3 190.79,-123.3"/>
<text text-anchor="middle" x="153.5" y="-111.3" font-family="Helvetica,sans-Serif" font-size="9.00">listener&#45;remove.js</text>
</a>
</g>
</g>
<!-- client/src/init/index.js&#45;&gt;client/src/listeners/listener&#45;remove.js -->
<g id="edge13" class="edge">
<title>client/src/init/index.js&#45;&gt;client/src/listeners/listener&#45;remove.js</title>
<path fill="none" stroke="#000000" stroke-width="2" stroke-opacity="0.200000" d="M86.26,-102.54C91.79,-103.5 97.79,-104.54 103.84,-105.58"/>
<polygon fill="#000000" fill-opacity="0.200000" stroke="#000000" stroke-width="2" stroke-opacity="0.200000" points="103.63,-107.68 109.9,-106.63 104.35,-103.54 103.63,-107.68"/>
</g>
<!-- client/src/listeners/listener&#45;style.js -->
<g id="node15" class="node">
<title>client/src/listeners/listener&#45;style.js</title>
<g id="a_node15"><a xlink:href="../client/src/listeners/listener-style.js" xlink:title="listener&#45;style.js">
<path fill="#ffffcc" stroke="black" d="M185.3,-61.3C185.3,-61.3 121.7,-61.3 121.7,-61.3 118.6,-61.3 115.5,-58.2 115.5,-55.1 115.5,-55.1 115.5,-48.9 115.5,-48.9 115.5,-45.8 118.6,-42.7 121.7,-42.7 121.7,-42.7 185.3,-42.7 185.3,-42.7 188.4,-42.7 191.5,-45.8 191.5,-48.9 191.5,-48.9 191.5,-55.1 191.5,-55.1 191.5,-58.2 188.4,-61.3 185.3,-61.3"/>
<text text-anchor="middle" x="153.5" y="-49.3" font-family="Helvetica,sans-Serif" font-size="9.00">listener&#45;style.js</text>
</a>
</g>
</g>
<!-- client/src/init/index.js&#45;&gt;client/src/listeners/listener&#45;style.js -->
<g id="edge14" class="edge">
<title>client/src/init/index.js&#45;&gt;client/src/listeners/listener&#45;style.js</title>
<path fill="none" stroke="#000000" stroke-width="2" stroke-opacity="0.200000" d="M71.14,-88.56C79.27,-82.06 90.78,-73.61 102,-68 105.21,-66.39 108.62,-64.9 112.1,-63.53"/>
<polygon fill="#000000" fill-opacity="0.200000" stroke="#000000" stroke-width="2" stroke-opacity="0.200000" points="113.08,-65.41 117.97,-61.34 111.61,-61.47 113.08,-65.41"/>
</g>
<!-- client/src/listeners/listener&#45;add.js&#45;&gt;client/src/handlers/handler&#45;add.js -->
<g id="edge15" class="edge">
<title>client/src/listeners/listener&#45;add.js&#45;&gt;client/src/handlers/handler&#45;add.js</title>
<path fill="none" stroke="#000000" stroke-width="2" stroke-opacity="0.200000" d="M189.75,-145C200.1,-145 211.51,-145 222.23,-145"/>
<polygon fill="#000000" fill-opacity="0.200000" stroke="#000000" stroke-width="2" stroke-opacity="0.200000" points="222.44,-147.1 228.44,-145 222.44,-142.9 222.44,-147.1"/>
</g>
<!-- client/src/listeners/listener&#45;load.js&#45;&gt;client/src/handlers/handler&#45;load.js -->
<g id="edge16" class="edge">
<title>client/src/listeners/listener&#45;load.js&#45;&gt;client/src/handlers/handler&#45;load.js</title>
<path fill="none" stroke="#000000" stroke-width="2" stroke-opacity="0.200000" d="M190.66,-83C200.35,-83 210.94,-83 220.97,-83"/>
<polygon fill="#000000" fill-opacity="0.200000" stroke="#000000" stroke-width="2" stroke-opacity="0.200000" points="221.13,-85.1 227.13,-83 221.13,-80.9 221.13,-85.1"/>
</g>
<!-- client/src/listeners/listener&#45;remove.js&#45;&gt;client/src/handlers/handler&#45;remove.js -->
<g id="edge17" class="edge">
<title>client/src/listeners/listener&#45;remove.js&#45;&gt;client/src/handlers/handler&#45;remove.js</title>
<path fill="none" stroke="#000000" stroke-width="2" stroke-opacity="0.200000" d="M197.15,-114C202.88,-114 208.8,-114 214.64,-114"/>
<polygon fill="#000000" fill-opacity="0.200000" stroke="#000000" stroke-width="2" stroke-opacity="0.200000" points="214.93,-116.1 220.93,-114 214.93,-111.9 214.93,-116.1"/>
</g>
<!-- client/src/listeners/listener&#45;style.js&#45;&gt;client/src/handlers/handler&#45;style.js -->
<g id="edge18" class="edge">
<title>client/src/listeners/listener&#45;style.js&#45;&gt;client/src/handlers/handler&#45;style.js</title>
<path fill="none" stroke="#000000" stroke-width="2" stroke-opacity="0.200000" d="M191.26,-52C200.73,-52 211.01,-52 220.77,-52"/>
<polygon fill="#000000" fill-opacity="0.200000" stroke="#000000" stroke-width="2" stroke-opacity="0.200000" points="220.77,-54.1 226.77,-52 220.77,-49.9 220.77,-54.1"/>
</g>
</g>
</svg>
