<?xml version="1.0" encoding="UTF-8" standalone="no"?>
<!DOCTYPE svg PUBLIC "-//W3C//DTD SVG 1.1//EN"
 "http://www.w3.org/Graphics/SVG/1.1/DTD/svg11.dtd">
<!-- Generated by graphviz version 2.44.0 (20200408.0750)
 -->
<!-- Title: dependency&#45;cruiser output Pages: 1 -->
<svg width="463pt" height="291pt"
 viewBox="0.00 0.00 463.02 291.00" xmlns="http://www.w3.org/2000/svg" xmlns:xlink="http://www.w3.org/1999/xlink">
<g id="graph0" class="graph" transform="scale(1 1) rotate(0) translate(4 287)">
<title>dependency&#45;cruiser output</title>
<polygon fill="white" stroke="transparent" points="-4,4 -4,-287 459.02,-287 459.02,4 -4,4"/>
<g id="clust1" class="cluster">
<title>cluster_client</title>
<path fill="#ffffff" stroke="black" stroke-width="2" d="M20,-8C20,-8 435.02,-8 435.02,-8 441.02,-8 447.02,-14 447.02,-20 447.02,-20 447.02,-263 447.02,-263 447.02,-269 441.02,-275 435.02,-275 435.02,-275 20,-275 20,-275 14,-275 8,-269 8,-263 8,-263 8,-20 8,-20 8,-14 14,-8 20,-8"/>
<text text-anchor="middle" x="227.51" y="-262.9" font-family="Helvetica,sans-Serif" font-weight="bold" font-size="9.00">client</text>
</g>
<g id="clust2" class="cluster">
<title>cluster_client/src</title>
<path fill="#ffffff" stroke="black" stroke-width="2" d="M28,-42C28,-42 427.02,-42 427.02,-42 433.02,-42 439.02,-48 439.02,-54 439.02,-54 439.02,-236 439.02,-236 439.02,-242 433.02,-248 427.02,-248 427.02,-248 28,-248 28,-248 22,-248 16,-242 16,-236 16,-236 16,-54 16,-54 16,-48 22,-42 28,-42"/>
<text text-anchor="middle" x="227.51" y="-235.9" font-family="Helvetica,sans-Serif" font-weight="bold" font-size="9.00">src</text>
</g>
<g id="clust3" class="cluster">
<title>cluster_client/src/components</title>
<path fill="#ffffff" stroke="black" stroke-width="2" d="M355.52,-50C355.52,-50 401.52,-50 401.52,-50 407.52,-50 413.52,-56 413.52,-62 413.52,-62 413.52,-91 413.52,-91 413.52,-97 407.52,-103 401.52,-103 401.52,-103 355.52,-103 355.52,-103 349.52,-103 343.52,-97 343.52,-91 343.52,-91 343.52,-62 343.52,-62 343.52,-56 349.52,-50 355.52,-50"/>
<text text-anchor="middle" x="378.52" y="-90.9" font-family="Helvetica,sans-Serif" font-weight="bold" font-size="9.00">components</text>
</g>
<g id="clust4" class="cluster">
<title>cluster_client/src/handlers</title>
<path fill="#ffffff" stroke="black" stroke-width="2" d="M225.5,-61C225.5,-61 306.01,-61 306.01,-61 312.01,-61 318.01,-67 318.01,-73 318.01,-73 318.01,-164 318.01,-164 318.01,-170 312.01,-176 306.01,-176 306.01,-176 225.5,-176 225.5,-176 219.5,-176 213.5,-170 213.5,-164 213.5,-164 213.5,-73 213.5,-73 213.5,-67 219.5,-61 225.5,-61"/>
<text text-anchor="middle" x="265.76" y="-163.9" font-family="Helvetica,sans-Serif" font-weight="bold" font-size="9.00">handlers</text>
</g>
<g id="clust5" class="cluster">
<title>cluster_client/src/init</title>
<path fill="#ffffff" stroke="black" stroke-width="2" d="M36,-92C36,-92 82,-92 82,-92 88,-92 94,-98 94,-104 94,-104 94,-133 94,-133 94,-139 88,-145 82,-145 82,-145 36,-145 36,-145 30,-145 24,-139 24,-133 24,-133 24,-104 24,-104 24,-98 30,-92 36,-92"/>
<text text-anchor="middle" x="59" y="-132.9" font-family="Helvetica,sans-Serif" font-weight="bold" font-size="9.00">init</text>
</g>
<g id="clust6" class="cluster">
<title>cluster_client/src/listeners</title>
<path fill="#ffffff" stroke="black" stroke-width="2" d="M114,-61C114,-61 193.5,-61 193.5,-61 199.5,-61 205.5,-67 205.5,-73 205.5,-73 205.5,-164 205.5,-164 205.5,-170 199.5,-176 193.5,-176 193.5,-176 114,-176 114,-176 108,-176 102,-170 102,-164 102,-164 102,-73 102,-73 102,-67 108,-61 114,-61"/>
<text text-anchor="middle" x="153.75" y="-163.9" font-family="Helvetica,sans-Serif" font-weight="bold" font-size="9.00">listeners</text>
</g>
<g id="clust7" class="cluster">
<title>cluster_client/src/logic</title>
<path fill="#ffffff" stroke="black" stroke-width="2" d="M338.01,-137C338.01,-137 419.02,-137 419.02,-137 425.02,-137 431.02,-143 431.02,-149 431.02,-149 431.02,-209 431.02,-209 431.02,-215 425.02,-221 419.02,-221 419.02,-221 338.01,-221 338.01,-221 332.01,-221 326.01,-215 326.01,-209 326.01,-209 326.01,-149 326.01,-149 326.01,-143 332.01,-137 338.01,-137"/>
<text text-anchor="middle" x="378.52" y="-208.9" font-family="Helvetica,sans-Serif" font-weight="bold" font-size="9.00">logic</text>
</g>
<!-- client/data.js -->
<g id="node1" class="node">
<title>client/data.js</title>
<g id="a_node1"><a xlink:href="../client/data.js" xlink:title="data.js">
<path fill="#ccffcc" stroke="black" d="M79.8,-34.3C79.8,-34.3 38.2,-34.3 38.2,-34.3 35.1,-34.3 32,-31.2 32,-28.1 32,-28.1 32,-21.9 32,-21.9 32,-18.8 35.1,-15.7 38.2,-15.7 38.2,-15.7 79.8,-15.7 79.8,-15.7 82.9,-15.7 86,-18.8 86,-21.9 86,-21.9 86,-28.1 86,-28.1 86,-31.2 82.9,-34.3 79.8,-34.3"/>
<text text-anchor="middle" x="59" y="-22.3" font-family="Helvetica,sans-Serif" font-size="9.00">data.js</text>
</a>
</g>
</g>
<!-- client/src/components/render.js -->
<g id="node2" class="node">
<title>client/src/components/render.js</title>
<g id="a_node2"><a xlink:href="../client/src/components/render.js" xlink:title="render.js">
<path fill="#ffffcc" stroke="black" d="M399.32,-76.3C399.32,-76.3 357.72,-76.3 357.72,-76.3 354.62,-76.3 351.52,-73.2 351.52,-70.1 351.52,-70.1 351.52,-63.9 351.52,-63.9 351.52,-60.8 354.62,-57.7 357.72,-57.7 357.72,-57.7 399.32,-57.7 399.32,-57.7 402.42,-57.7 405.52,-60.8 405.52,-63.9 405.52,-63.9 405.52,-70.1 405.52,-70.1 405.52,-73.2 402.42,-76.3 399.32,-76.3"/>
<text text-anchor="middle" x="378.52" y="-64.3" font-family="Helvetica,sans-Serif" font-size="9.00">render.js</text>
</a>
</g>
</g>
<!-- client/src/data.js -->
<g id="node3" class="node">
<title>client/src/data.js</title>
<g id="a_node3"><a xlink:href="../client/src/data.js" xlink:title="data.js">
<path fill="#ffffcc" stroke="black" d="M399.32,-129.3C399.32,-129.3 357.72,-129.3 357.72,-129.3 354.62,-129.3 351.52,-126.2 351.52,-123.1 351.52,-123.1 351.52,-116.9 351.52,-116.9 351.52,-113.8 354.62,-110.7 357.72,-110.7 357.72,-110.7 399.32,-110.7 399.32,-110.7 402.42,-110.7 405.52,-113.8 405.52,-116.9 405.52,-116.9 405.52,-123.1 405.52,-123.1 405.52,-126.2 402.42,-129.3 399.32,-129.3"/>
<text text-anchor="middle" x="378.52" y="-117.3" font-family="Helvetica,sans-Serif" font-size="9.00">data.js</text>
</a>
</g>
</g>
<!-- client/src/handlers/handlerAdd.js -->
<g id="node4" class="node">
<title>client/src/handlers/handlerAdd.js</title>
<g id="a_node4"><a xlink:href="../client/src/handlers/handlerAdd.js" xlink:title="handlerAdd.js">
<path fill="#ffffcc" stroke="black" d="M295.07,-118.3C295.07,-118.3 236.44,-118.3 236.44,-118.3 233.34,-118.3 230.24,-115.2 230.24,-112.1 230.24,-112.1 230.24,-105.9 230.24,-105.9 230.24,-102.8 233.34,-99.7 236.44,-99.7 236.44,-99.7 295.07,-99.7 295.07,-99.7 298.17,-99.7 301.27,-102.8 301.27,-105.9 301.27,-105.9 301.27,-112.1 301.27,-112.1 301.27,-115.2 298.17,-118.3 295.07,-118.3"/>
<text text-anchor="middle" x="265.76" y="-106.3" font-family="Helvetica,sans-Serif" font-size="9.00">handlerAdd.js</text>
</a>
</g>
</g>
<!-- client/src/handlers/handlerAdd.js&#45;&gt;client/src/components/render.js -->
<g id="edge1" class="edge">
<title>client/src/handlers/handlerAdd.js&#45;&gt;client/src/components/render.js</title>
<path fill="none" stroke="#000000" stroke-width="2" stroke-opacity="0.200000" d="M301.52,-101.88C307.39,-99.67 313.15,-96.78 318.01,-93 323.37,-88.84 320.54,-84.01 326.01,-80 331.65,-75.86 338.46,-73.04 345.26,-71.11"/>
<polygon fill="#000000" fill-opacity="0.200000" stroke="#000000" stroke-width="2" stroke-opacity="0.200000" points="346.14,-73.05 351.47,-69.58 345.14,-68.97 346.14,-73.05"/>
</g>
<!-- client/src/handlers/handlerAdd.js&#45;&gt;client/src/data.js -->
<g id="edge2" class="edge">
<title>client/src/handlers/handlerAdd.js&#45;&gt;client/src/data.js</title>
<path fill="none" stroke="#000000" stroke-width="2" stroke-opacity="0.200000" d="M301.5,-112.45C315.47,-113.84 331.49,-115.43 345.21,-116.79"/>
<polygon fill="#000000" fill-opacity="0.200000" stroke="#000000" stroke-width="2" stroke-opacity="0.200000" points="345.16,-118.9 351.34,-117.4 345.57,-114.72 345.16,-118.9"/>
</g>
<!-- client/src/logic/validityCheck.js -->
<g id="node5" class="node">
<title>client/src/logic/validityCheck.js</title>
<g id="a_node5"><a xlink:href="../client/src/logic/validityCheck.js" xlink:title="validityCheck.js">
<path fill="#ffffcc" stroke="black" d="M411.32,-163.3C411.32,-163.3 345.72,-163.3 345.72,-163.3 342.62,-163.3 339.52,-160.2 339.52,-157.1 339.52,-157.1 339.52,-150.9 339.52,-150.9 339.52,-147.8 342.62,-144.7 345.72,-144.7 345.72,-144.7 411.32,-144.7 411.32,-144.7 414.42,-144.7 417.52,-147.8 417.52,-150.9 417.52,-150.9 417.52,-157.1 417.52,-157.1 417.52,-160.2 414.42,-163.3 411.32,-163.3"/>
<text text-anchor="middle" x="378.52" y="-151.3" font-family="Helvetica,sans-Serif" font-size="9.00">validityCheck.js</text>
</a>
</g>
</g>
<!-- client/src/handlers/handlerAdd.js&#45;&gt;client/src/logic/validityCheck.js -->
<g id="edge3" class="edge">
<title>client/src/handlers/handlerAdd.js&#45;&gt;client/src/logic/validityCheck.js</title>
<path fill="none" stroke="#000000" stroke-width="2" stroke-opacity="0.200000" d="M301.27,-115.57C307.3,-117.84 313.18,-120.89 318.01,-125 324.07,-130.15 319.81,-136.02 326.01,-141 328.36,-142.89 330.94,-144.5 333.67,-145.89"/>
<polygon fill="#000000" fill-opacity="0.200000" stroke="#000000" stroke-width="2" stroke-opacity="0.200000" points="333.09,-147.93 339.43,-148.42 334.78,-144.08 333.09,-147.93"/>
</g>
<!-- client/src/handlers/handlerLoad.js -->
<g id="node6" class="node">
<title>client/src/handlers/handlerLoad.js</title>
<g id="a_node6"><a xlink:href="../client/src/handlers/handlerLoad.js" xlink:title="handlerLoad.js">
<path fill="#ffffcc" stroke="black" d="M297.07,-87.3C297.07,-87.3 234.44,-87.3 234.44,-87.3 231.34,-87.3 228.24,-84.2 228.24,-81.1 228.24,-81.1 228.24,-74.9 228.24,-74.9 228.24,-71.8 231.34,-68.7 234.44,-68.7 234.44,-68.7 297.07,-68.7 297.07,-68.7 300.18,-68.7 303.28,-71.8 303.28,-74.9 303.28,-74.9 303.28,-81.1 303.28,-81.1 303.28,-84.2 300.18,-87.3 297.07,-87.3"/>
<text text-anchor="middle" x="265.76" y="-75.3" font-family="Helvetica,sans-Serif" font-size="9.00">handlerLoad.js</text>
</a>
</g>
</g>
<!-- client/src/handlers/handlerLoad.js&#45;&gt;client/src/components/render.js -->
<g id="edge4" class="edge">
<title>client/src/handlers/handlerLoad.js&#45;&gt;client/src/components/render.js</title>
<path fill="none" stroke="#000000" stroke-width="2" stroke-opacity="0.200000" d="M303.33,-74.37C316.87,-73.02 332.11,-71.51 345.24,-70.21"/>
<polygon fill="#000000" fill-opacity="0.200000" stroke="#000000" stroke-width="2" stroke-opacity="0.200000" points="345.73,-72.27 351.5,-69.58 345.32,-68.09 345.73,-72.27"/>
</g>
<!-- client/src/handlers/handlerLoad.js&#45;&gt;client/src/data.js -->
<g id="edge5" class="edge">
<title>client/src/handlers/handlerLoad.js&#45;&gt;client/src/data.js</title>
<path fill="none" stroke="#000000" stroke-width="2" stroke-opacity="0.200000" d="M303.28,-85.99C308.51,-88.08 313.61,-90.7 318.01,-94 323.14,-97.84 320.81,-102.25 326.01,-106 331.65,-110.06 338.41,-112.95 345.15,-114.99"/>
<polygon fill="#000000" fill-opacity="0.200000" stroke="#000000" stroke-width="2" stroke-opacity="0.200000" points="344.96,-117.12 351.3,-116.65 346.05,-113.06 344.96,-117.12"/>
</g>
<!-- client/src/handlers/handlerRemove.js -->
<g id="node7" class="node">
<title>client/src/handlers/handlerRemove.js</title>
<g id="a_node7"><a xlink:href="../client/src/handlers/handlerRemove.js" xlink:title="handlerRemove.js">
<path fill="#ffffcc" stroke="black" d="M303.57,-149.3C303.57,-149.3 227.95,-149.3 227.95,-149.3 224.85,-149.3 221.75,-146.2 221.75,-143.1 221.75,-143.1 221.75,-136.9 221.75,-136.9 221.75,-133.8 224.85,-130.7 227.95,-130.7 227.95,-130.7 303.57,-130.7 303.57,-130.7 306.67,-130.7 309.77,-133.8 309.77,-136.9 309.77,-136.9 309.77,-143.1 309.77,-143.1 309.77,-146.2 306.67,-149.3 303.57,-149.3"/>
<text text-anchor="middle" x="265.76" y="-137.3" font-family="Helvetica,sans-Serif" font-size="9.00">handlerRemove.js</text>
</a>
</g>
</g>
<!-- client/src/handlers/handlerRemove.js&#45;&gt;client/src/components/render.js -->
<g id="edge6" class="edge">
<title>client/src/handlers/handlerRemove.js&#45;&gt;client/src/components/render.js</title>
<path fill="none" stroke="#000000" stroke-width="2" stroke-opacity="0.200000" d="M309.85,-130.73C312.89,-128.87 315.66,-126.65 318.01,-124 331.18,-109.11 312.44,-94.52 326.01,-80 331.08,-74.58 338.05,-71.28 345.23,-69.31"/>
<polygon fill="#000000" fill-opacity="0.200000" stroke="#000000" stroke-width="2" stroke-opacity="0.200000" points="345.88,-71.31 351.27,-67.94 344.95,-67.22 345.88,-71.31"/>
</g>
<!-- client/src/handlers/handlerRemove.js&#45;&gt;client/src/data.js -->
<g id="edge7" class="edge">
<title>client/src/handlers/handlerRemove.js&#45;&gt;client/src/data.js</title>
<path fill="none" stroke="#000000" stroke-width="2" stroke-opacity="0.200000" d="M309.9,-132.21C321.68,-130.08 334.25,-127.81 345.31,-125.82"/>
<polygon fill="#000000" fill-opacity="0.200000" stroke="#000000" stroke-width="2" stroke-opacity="0.200000" points="345.76,-127.87 351.29,-124.74 345.01,-123.74 345.76,-127.87"/>
</g>
<!-- client/src/logic/isBookInTheList.js -->
<g id="node8" class="node">
<title>client/src/logic/isBookInTheList.js</title>
<g id="a_node8"><a xlink:href="../client/src/logic/isBookInTheList.js" xlink:title="isBookInTheList.js">
<path fill="#ffffcc" stroke="black" d="M416.83,-194.3C416.83,-194.3 340.2,-194.3 340.2,-194.3 337.1,-194.3 334,-191.2 334,-188.1 334,-188.1 334,-181.9 334,-181.9 334,-178.8 337.1,-175.7 340.2,-175.7 340.2,-175.7 416.83,-175.7 416.83,-175.7 419.93,-175.7 423.03,-178.8 423.03,-181.9 423.03,-181.9 423.03,-188.1 423.03,-188.1 423.03,-191.2 419.93,-194.3 416.83,-194.3"/>
<text text-anchor="middle" x="378.52" y="-182.3" font-family="Helvetica,sans-Serif" font-size="9.00">isBookInTheList.js</text>
</a>
</g>
</g>
<!-- client/src/handlers/handlerRemove.js&#45;&gt;client/src/logic/isBookInTheList.js -->
<g id="edge8" class="edge">
<title>client/src/handlers/handlerRemove.js&#45;&gt;client/src/logic/isBookInTheList.js</title>
<path fill="none" stroke="#000000" stroke-width="2" stroke-opacity="0.200000" d="M284.07,-149.35C295.72,-155.42 311.53,-163.25 326.01,-169 330.14,-170.64 334.51,-172.22 338.88,-173.71"/>
<polygon fill="#000000" fill-opacity="0.200000" stroke="#000000" stroke-width="2" stroke-opacity="0.200000" points="338.47,-175.79 344.83,-175.68 339.79,-171.8 338.47,-175.79"/>
</g>
<!-- client/src/init/index.js -->
<g id="node9" class="node">
<title>client/src/init/index.js</title>
<g id="a_node9"><a xlink:href="../client/src/init/index.js" xlink:title="index.js">
<path fill="#ffffcc" stroke="black" d="M79.8,-118.3C79.8,-118.3 38.2,-118.3 38.2,-118.3 35.1,-118.3 32,-115.2 32,-112.1 32,-112.1 32,-105.9 32,-105.9 32,-102.8 35.1,-99.7 38.2,-99.7 38.2,-99.7 79.8,-99.7 79.8,-99.7 82.9,-99.7 86,-102.8 86,-105.9 86,-105.9 86,-112.1 86,-112.1 86,-115.2 82.9,-118.3 79.8,-118.3"/>
<text text-anchor="middle" x="59" y="-106.3" font-family="Helvetica,sans-Serif" font-size="9.00">index.js</text>
</a>
</g>
</g>
<!-- client/src/listeners/listenerAdd.js -->
<g id="node10" class="node">
<title>client/src/listeners/listenerAdd.js</title>
<g id="a_node10"><a xlink:href="../client/src/listeners/listenerAdd.js" xlink:title="listenerAdd.js">
<path fill="#ffffcc" stroke="black" d="M182.56,-118.3C182.56,-118.3 124.94,-118.3 124.94,-118.3 121.84,-118.3 118.74,-115.2 118.74,-112.1 118.74,-112.1 118.74,-105.9 118.74,-105.9 118.74,-102.8 121.84,-99.7 124.94,-99.7 124.94,-99.7 182.56,-99.7 182.56,-99.7 185.66,-99.7 188.76,-102.8 188.76,-105.9 188.76,-105.9 188.76,-112.1 188.76,-112.1 188.76,-115.2 185.66,-118.3 182.56,-118.3"/>
<text text-anchor="middle" x="153.75" y="-106.3" font-family="Helvetica,sans-Serif" font-size="9.00">listenerAdd.js</text>
</a>
</g>
</g>
<!-- client/src/init/index.js&#45;&gt;client/src/listeners/listenerAdd.js -->
<g id="edge9" class="edge">
<title>client/src/init/index.js&#45;&gt;client/src/listeners/listenerAdd.js</title>
<path fill="none" stroke="#000000" stroke-width="2" stroke-opacity="0.200000" d="M86.33,-109C94.51,-109 103.72,-109 112.62,-109"/>
<polygon fill="#000000" fill-opacity="0.200000" stroke="#000000" stroke-width="2" stroke-opacity="0.200000" points="112.72,-111.1 118.72,-109 112.72,-106.9 112.72,-111.1"/>
</g>
<!-- client/src/listeners/listenerLoad.js -->
<g id="node11" class="node">
<title>client/src/listeners/listenerLoad.js</title>
<g id="a_node11"><a xlink:href="../client/src/listeners/listenerLoad.js" xlink:title="listenerLoad.js">
<path fill="#ffffcc" stroke="black" d="M184.56,-87.3C184.56,-87.3 122.94,-87.3 122.94,-87.3 119.84,-87.3 116.74,-84.2 116.74,-81.1 116.74,-81.1 116.74,-74.9 116.74,-74.9 116.74,-71.8 119.84,-68.7 122.94,-68.7 122.94,-68.7 184.56,-68.7 184.56,-68.7 187.66,-68.7 190.76,-71.8 190.76,-74.9 190.76,-74.9 190.76,-81.1 190.76,-81.1 190.76,-84.2 187.66,-87.3 184.56,-87.3"/>
<text text-anchor="middle" x="153.75" y="-75.3" font-family="Helvetica,sans-Serif" font-size="9.00">listenerLoad.js</text>
</a>
</g>
</g>
<!-- client/src/init/index.js&#45;&gt;client/src/listeners/listenerLoad.js -->
<g id="edge10" class="edge">
<title>client/src/init/index.js&#45;&gt;client/src/listeners/listenerLoad.js</title>
<path fill="none" stroke="#000000" stroke-width="2" stroke-opacity="0.200000" d="M85.71,-99.64C91.08,-97.74 96.72,-95.78 102,-94 106.72,-92.41 111.7,-90.79 116.63,-89.2"/>
<polygon fill="#000000" fill-opacity="0.200000" stroke="#000000" stroke-width="2" stroke-opacity="0.200000" points="117.29,-91.2 122.37,-87.37 116.01,-87.2 117.29,-91.2"/>
</g>
<!-- client/src/listeners/listenerRemove.js -->
<g id="node12" class="node">
<title>client/src/listeners/listenerRemove.js</title>
<g id="a_node12"><a xlink:href="../client/src/listeners/listenerRemove.js" xlink:title="listenerRemove.js">
<path fill="#ffffcc" stroke="black" d="M191.05,-149.3C191.05,-149.3 116.45,-149.3 116.45,-149.3 113.35,-149.3 110.25,-146.2 110.25,-143.1 110.25,-143.1 110.25,-136.9 110.25,-136.9 110.25,-133.8 113.35,-130.7 116.45,-130.7 116.45,-130.7 191.05,-130.7 191.05,-130.7 194.15,-130.7 197.25,-133.8 197.25,-136.9 197.25,-136.9 197.25,-143.1 197.25,-143.1 197.25,-146.2 194.15,-149.3 191.05,-149.3"/>
<text text-anchor="middle" x="153.75" y="-137.3" font-family="Helvetica,sans-Serif" font-size="9.00">listenerRemove.js</text>
</a>
</g>
</g>
<!-- client/src/init/index.js&#45;&gt;client/src/listeners/listenerRemove.js -->
<g id="edge11" class="edge">
<title>client/src/init/index.js&#45;&gt;client/src/listeners/listenerRemove.js</title>
<path fill="none" stroke="#000000" stroke-width="2" stroke-opacity="0.200000" d="M85.71,-118.36C91.08,-120.26 96.72,-122.22 102,-124 106.72,-125.59 111.7,-127.21 116.63,-128.8"/>
<polygon fill="#000000" fill-opacity="0.200000" stroke="#000000" stroke-width="2" stroke-opacity="0.200000" points="116.01,-130.8 122.37,-130.63 117.29,-126.8 116.01,-130.8"/>
</g>
<!-- client/src/listeners/listenerAdd.js&#45;&gt;client/src/handlers/handlerAdd.js -->
<g id="edge12" class="edge">
<title>client/src/listeners/listenerAdd.js&#45;&gt;client/src/handlers/handlerAdd.js</title>
<path fill="none" stroke="#000000" stroke-width="2" stroke-opacity="0.200000" d="M188.95,-109C200.02,-109 212.41,-109 223.91,-109"/>
<polygon fill="#000000" fill-opacity="0.200000" stroke="#000000" stroke-width="2" stroke-opacity="0.200000" points="224.2,-111.1 230.19,-109 224.19,-106.9 224.2,-111.1"/>
</g>
<!-- client/src/listeners/listenerLoad.js&#45;&gt;client/src/handlers/handlerLoad.js -->
<g id="edge13" class="edge">
<title>client/src/listeners/listenerLoad.js&#45;&gt;client/src/handlers/handlerLoad.js</title>
<path fill="none" stroke="#000000" stroke-width="2" stroke-opacity="0.200000" d="M190.77,-78C200.63,-78 211.42,-78 221.63,-78"/>
<polygon fill="#000000" fill-opacity="0.200000" stroke="#000000" stroke-width="2" stroke-opacity="0.200000" points="221.9,-80.1 227.9,-78 221.9,-75.9 221.9,-80.1"/>
</g>
<!-- client/src/listeners/listenerRemove.js&#45;&gt;client/src/handlers/handlerRemove.js -->
<g id="edge14" class="edge">
<title>client/src/listeners/listenerRemove.js&#45;&gt;client/src/handlers/handlerRemove.js</title>
<path fill="none" stroke="#000000" stroke-width="2" stroke-opacity="0.200000" d="M197.28,-140C203.27,-140 209.46,-140 215.56,-140"/>
<polygon fill="#000000" fill-opacity="0.200000" stroke="#000000" stroke-width="2" stroke-opacity="0.200000" points="215.61,-142.1 221.61,-140 215.61,-137.9 215.61,-142.1"/>
</g>
</g>
</svg>
