<?xml version="1.0" encoding="UTF-8" standalone="no"?>
<!DOCTYPE svg PUBLIC "-//W3C//DTD SVG 1.1//EN"
 "http://www.w3.org/Graphics/SVG/1.1/DTD/svg11.dtd">
<!-- Generated by graphviz version 2.44.0 (20200408.0750)
 -->
<!-- Title: dependency&#45;cruiser output Pages: 1 -->
<svg width="494pt" height="327pt"
 viewBox="0.00 0.00 494.03 327.00" xmlns="http://www.w3.org/2000/svg" xmlns:xlink="http://www.w3.org/1999/xlink">
<g id="graph0" class="graph" transform="scale(1 1) rotate(0) translate(4 323)">
<title>dependency&#45;cruiser output</title>
<polygon fill="white" stroke="transparent" points="-4,4 -4,-323 490.03,-323 490.03,4 -4,4"/>
<g id="clust1" class="cluster">
<title>cluster_client</title>
<path fill="#ffffff" stroke="black" stroke-width="2" d="M20,-8C20,-8 466.03,-8 466.03,-8 472.03,-8 478.03,-14 478.03,-20 478.03,-20 478.03,-299 478.03,-299 478.03,-305 472.03,-311 466.03,-311 466.03,-311 20,-311 20,-311 14,-311 8,-305 8,-299 8,-299 8,-20 8,-20 8,-14 14,-8 20,-8"/>
<text text-anchor="middle" x="243.02" y="-298.9" font-family="Helvetica,sans-Serif" font-weight="bold" font-size="9.00">client</text>
</g>
<g id="clust2" class="cluster">
<title>cluster_client/src</title>
<path fill="#ffffff" stroke="black" stroke-width="2" d="M28,-16C28,-16 458.03,-16 458.03,-16 464.03,-16 470.03,-22 470.03,-28 470.03,-28 470.03,-272 470.03,-272 470.03,-278 464.03,-284 458.03,-284 458.03,-284 28,-284 28,-284 22,-284 16,-278 16,-272 16,-272 16,-28 16,-28 16,-22 22,-16 28,-16"/>
<text text-anchor="middle" x="243.02" y="-271.9" font-family="Helvetica,sans-Serif" font-weight="bold" font-size="9.00">src</text>
</g>
<g id="clust3" class="cluster">
<title>cluster_client/src/components</title>
<path fill="#ffffff" stroke="black" stroke-width="2" d="M371.02,-24C371.02,-24 417.02,-24 417.02,-24 423.02,-24 429.02,-30 429.02,-36 429.02,-36 429.02,-65 429.02,-65 429.02,-71 423.02,-77 417.02,-77 417.02,-77 371.02,-77 371.02,-77 365.02,-77 359.02,-71 359.02,-65 359.02,-65 359.02,-36 359.02,-36 359.02,-30 365.02,-24 371.02,-24"/>
<text text-anchor="middle" x="394.02" y="-64.9" font-family="Helvetica,sans-Serif" font-weight="bold" font-size="9.00">components</text>
</g>
<g id="clust4" class="cluster">
<title>cluster_client/src/handlers</title>
<path fill="#ffffff" stroke="black" stroke-width="2" d="M225.5,-35C225.5,-35 306.01,-35 306.01,-35 312.01,-35 318.01,-41 318.01,-47 318.01,-47 318.01,-138 318.01,-138 318.01,-144 312.01,-150 306.01,-150 306.01,-150 225.5,-150 225.5,-150 219.5,-150 213.5,-144 213.5,-138 213.5,-138 213.5,-47 213.5,-47 213.5,-41 219.5,-35 225.5,-35"/>
<text text-anchor="middle" x="265.76" y="-137.9" font-family="Helvetica,sans-Serif" font-weight="bold" font-size="9.00">handlers</text>
</g>
<g id="clust5" class="cluster">
<title>cluster_client/src/init</title>
<path fill="#ffffff" stroke="black" stroke-width="2" d="M36,-66C36,-66 82,-66 82,-66 88,-66 94,-72 94,-78 94,-78 94,-107 94,-107 94,-113 88,-119 82,-119 82,-119 36,-119 36,-119 30,-119 24,-113 24,-107 24,-107 24,-78 24,-78 24,-72 30,-66 36,-66"/>
<text text-anchor="middle" x="59" y="-106.9" font-family="Helvetica,sans-Serif" font-weight="bold" font-size="9.00">init</text>
</g>
<g id="clust6" class="cluster">
<title>cluster_client/src/listeners</title>
<path fill="#ffffff" stroke="black" stroke-width="2" d="M114,-35C114,-35 193.5,-35 193.5,-35 199.5,-35 205.5,-41 205.5,-47 205.5,-47 205.5,-138 205.5,-138 205.5,-144 199.5,-150 193.5,-150 193.5,-150 114,-150 114,-150 108,-150 102,-144 102,-138 102,-138 102,-47 102,-47 102,-41 108,-35 114,-35"/>
<text text-anchor="middle" x="153.75" y="-137.9" font-family="Helvetica,sans-Serif" font-weight="bold" font-size="9.00">listeners</text>
</g>
<g id="clust7" class="cluster">
<title>cluster_client/src/logic</title>
<path fill="#ffffff" stroke="black" stroke-width="2" d="M338.01,-111C338.01,-111 450.03,-111 450.03,-111 456.03,-111 462.03,-117 462.03,-123 462.03,-123 462.03,-245 462.03,-245 462.03,-251 456.03,-257 450.03,-257 450.03,-257 338.01,-257 338.01,-257 332.01,-257 326.01,-251 326.01,-245 326.01,-245 326.01,-123 326.01,-123 326.01,-117 332.01,-111 338.01,-111"/>
<text text-anchor="middle" x="394.02" y="-244.9" font-family="Helvetica,sans-Serif" font-weight="bold" font-size="9.00">logic</text>
</g>
<!-- client/src/components/render.js -->
<g id="node1" class="node">
<title>client/src/components/render.js</title>
<g id="a_node1"><a xlink:href="../client/src/components/render.js" xlink:title="render.js">
<path fill="#ffffcc" stroke="black" d="M414.82,-50.3C414.82,-50.3 373.22,-50.3 373.22,-50.3 370.12,-50.3 367.02,-47.2 367.02,-44.1 367.02,-44.1 367.02,-37.9 367.02,-37.9 367.02,-34.8 370.12,-31.7 373.22,-31.7 373.22,-31.7 414.82,-31.7 414.82,-31.7 417.92,-31.7 421.02,-34.8 421.02,-37.9 421.02,-37.9 421.02,-44.1 421.02,-44.1 421.02,-47.2 417.92,-50.3 414.82,-50.3"/>
<text text-anchor="middle" x="394.02" y="-38.3" font-family="Helvetica,sans-Serif" font-size="9.00">render.js</text>
</a>
</g>
</g>
<!-- client/src/data.js -->
<g id="node2" class="node">
<title>client/src/data.js</title>
<g id="a_node2"><a xlink:href="../client/src/data.js" xlink:title="data.js">
<path fill="#ffffcc" stroke="black" d="M414.82,-103.3C414.82,-103.3 373.22,-103.3 373.22,-103.3 370.12,-103.3 367.02,-100.2 367.02,-97.1 367.02,-97.1 367.02,-90.9 367.02,-90.9 367.02,-87.8 370.12,-84.7 373.22,-84.7 373.22,-84.7 414.82,-84.7 414.82,-84.7 417.92,-84.7 421.02,-87.8 421.02,-90.9 421.02,-90.9 421.02,-97.1 421.02,-97.1 421.02,-100.2 417.92,-103.3 414.82,-103.3"/>
<text text-anchor="middle" x="394.02" y="-91.3" font-family="Helvetica,sans-Serif" font-size="9.00">data.js</text>
</a>
</g>
</g>
<!-- client/src/handlers/handlerAdd.js -->
<g id="node3" class="node">
<title>client/src/handlers/handlerAdd.js</title>
<g id="a_node3"><a xlink:href="../client/src/handlers/handlerAdd.js" xlink:title="handlerAdd.js">
<path fill="#ffffcc" stroke="black" d="M295.07,-92.3C295.07,-92.3 236.44,-92.3 236.44,-92.3 233.34,-92.3 230.24,-89.2 230.24,-86.1 230.24,-86.1 230.24,-79.9 230.24,-79.9 230.24,-76.8 233.34,-73.7 236.44,-73.7 236.44,-73.7 295.07,-73.7 295.07,-73.7 298.17,-73.7 301.27,-76.8 301.27,-79.9 301.27,-79.9 301.27,-86.1 301.27,-86.1 301.27,-89.2 298.17,-92.3 295.07,-92.3"/>
<text text-anchor="middle" x="265.76" y="-80.3" font-family="Helvetica,sans-Serif" font-size="9.00">handlerAdd.js</text>
</a>
</g>
</g>
<!-- client/src/handlers/handlerAdd.js&#45;&gt;client/src/components/render.js -->
<g id="edge1" class="edge">
<title>client/src/handlers/handlerAdd.js&#45;&gt;client/src/components/render.js</title>
<path fill="none" stroke="#000000" stroke-width="2" stroke-opacity="0.200000" d="M301.52,-75.88C307.39,-73.67 313.15,-70.78 318.01,-67 323.37,-62.84 320.43,-57.86 326.01,-54 336.13,-46.99 349.08,-43.53 360.88,-41.89"/>
<polygon fill="#000000" fill-opacity="0.200000" stroke="#000000" stroke-width="2" stroke-opacity="0.200000" points="361.22,-43.97 366.93,-41.19 360.73,-39.8 361.22,-43.97"/>
</g>
<!-- client/src/handlers/handlerAdd.js&#45;&gt;client/src/data.js -->
<g id="edge2" class="edge">
<title>client/src/handlers/handlerAdd.js&#45;&gt;client/src/data.js</title>
<path fill="none" stroke="#000000" stroke-width="2" stroke-opacity="0.200000" d="M301.59,-86.03C319.93,-87.63 342.27,-89.58 360.29,-91.15"/>
<polygon fill="#000000" fill-opacity="0.200000" stroke="#000000" stroke-width="2" stroke-opacity="0.200000" points="360.55,-93.28 366.71,-91.71 360.91,-89.09 360.55,-93.28"/>
</g>
<!-- client/src/logic/validityCheck.js -->
<g id="node4" class="node">
<title>client/src/logic/validityCheck.js</title>
<g id="a_node4"><a xlink:href="../client/src/logic/validityCheck.js" xlink:title="validityCheck.js">
<path fill="#ffffcc" stroke="black" d="M426.82,-199.3C426.82,-199.3 361.22,-199.3 361.22,-199.3 358.12,-199.3 355.02,-196.2 355.02,-193.1 355.02,-193.1 355.02,-186.9 355.02,-186.9 355.02,-183.8 358.12,-180.7 361.22,-180.7 361.22,-180.7 426.82,-180.7 426.82,-180.7 429.92,-180.7 433.02,-183.8 433.02,-186.9 433.02,-186.9 433.02,-193.1 433.02,-193.1 433.02,-196.2 429.92,-199.3 426.82,-199.3"/>
<text text-anchor="middle" x="394.02" y="-187.3" font-family="Helvetica,sans-Serif" font-size="9.00">validityCheck.js</text>
</a>
</g>
</g>
<!-- client/src/handlers/handlerAdd.js&#45;&gt;client/src/logic/validityCheck.js -->
<g id="edge3" class="edge">
<title>client/src/handlers/handlerAdd.js&#45;&gt;client/src/logic/validityCheck.js</title>
<path fill="none" stroke="#000000" stroke-width="2" stroke-opacity="0.200000" d="M301.27,-87.77C307.67,-90.18 313.69,-93.74 318.01,-99 339.28,-124.91 303.87,-148.83 326.01,-174 331.92,-180.71 340.08,-184.87 348.69,-187.39"/>
<polygon fill="#000000" fill-opacity="0.200000" stroke="#000000" stroke-width="2" stroke-opacity="0.200000" points="348.37,-189.48 354.7,-188.89 349.39,-185.4 348.37,-189.48"/>
</g>
<!-- client/src/handlers/handlerLoad.js -->
<g id="node5" class="node">
<title>client/src/handlers/handlerLoad.js</title>
<g id="a_node5"><a xlink:href="../client/src/handlers/handlerLoad.js" xlink:title="handlerLoad.js">
<path fill="#ffffcc" stroke="black" d="M297.07,-61.3C297.07,-61.3 234.44,-61.3 234.44,-61.3 231.34,-61.3 228.24,-58.2 228.24,-55.1 228.24,-55.1 228.24,-48.9 228.24,-48.9 228.24,-45.8 231.34,-42.7 234.44,-42.7 234.44,-42.7 297.07,-42.7 297.07,-42.7 300.18,-42.7 303.28,-45.8 303.28,-48.9 303.28,-48.9 303.28,-55.1 303.28,-55.1 303.28,-58.2 300.18,-61.3 297.07,-61.3"/>
<text text-anchor="middle" x="265.76" y="-49.3" font-family="Helvetica,sans-Serif" font-size="9.00">handlerLoad.js</text>
</a>
</g>
</g>
<!-- client/src/handlers/handlerLoad.js&#45;&gt;client/src/components/render.js -->
<g id="edge4" class="edge">
<title>client/src/handlers/handlerLoad.js&#45;&gt;client/src/components/render.js</title>
<path fill="none" stroke="#000000" stroke-width="2" stroke-opacity="0.200000" d="M303.28,-48.82C321.44,-47.24 343.2,-45.34 360.74,-43.81"/>
<polygon fill="#000000" fill-opacity="0.200000" stroke="#000000" stroke-width="2" stroke-opacity="0.200000" points="361.21,-45.88 367,-43.27 360.84,-41.7 361.21,-45.88"/>
</g>
<!-- client/src/handlers/handlerLoad.js&#45;&gt;client/src/data.js -->
<g id="edge5" class="edge">
<title>client/src/handlers/handlerLoad.js&#45;&gt;client/src/data.js</title>
<path fill="none" stroke="#000000" stroke-width="2" stroke-opacity="0.200000" d="M303.28,-59.99C308.51,-62.08 313.61,-64.7 318.01,-68 323.14,-71.84 320.7,-76.41 326.01,-80 336.16,-86.86 348.99,-90.46 360.71,-92.32"/>
<polygon fill="#000000" fill-opacity="0.200000" stroke="#000000" stroke-width="2" stroke-opacity="0.200000" points="360.48,-94.41 366.71,-93.14 361.05,-90.25 360.48,-94.41"/>
</g>
<!-- client/src/handlers/handlerRemove.js -->
<g id="node6" class="node">
<title>client/src/handlers/handlerRemove.js</title>
<g id="a_node6"><a xlink:href="../client/src/handlers/handlerRemove.js" xlink:title="handlerRemove.js">
<path fill="#ffffcc" stroke="black" d="M303.57,-123.3C303.57,-123.3 227.95,-123.3 227.95,-123.3 224.85,-123.3 221.75,-120.2 221.75,-117.1 221.75,-117.1 221.75,-110.9 221.75,-110.9 221.75,-107.8 224.85,-104.7 227.95,-104.7 227.95,-104.7 303.57,-104.7 303.57,-104.7 306.67,-104.7 309.77,-107.8 309.77,-110.9 309.77,-110.9 309.77,-117.1 309.77,-117.1 309.77,-120.2 306.67,-123.3 303.57,-123.3"/>
<text text-anchor="middle" x="265.76" y="-111.3" font-family="Helvetica,sans-Serif" font-size="9.00">handlerRemove.js</text>
</a>
</g>
</g>
<!-- client/src/handlers/handlerRemove.js&#45;&gt;client/src/components/render.js -->
<g id="edge6" class="edge">
<title>client/src/handlers/handlerRemove.js&#45;&gt;client/src/components/render.js</title>
<path fill="none" stroke="#000000" stroke-width="2" stroke-opacity="0.200000" d="M309.85,-104.73C312.89,-102.87 315.66,-100.65 318.01,-98 331.18,-83.11 312.04,-68.14 326.01,-54 335.03,-44.87 348.41,-41.14 360.84,-39.87"/>
<polygon fill="#000000" fill-opacity="0.200000" stroke="#000000" stroke-width="2" stroke-opacity="0.200000" points="361.02,-41.97 366.85,-39.44 360.71,-37.78 361.02,-41.97"/>
</g>
<!-- client/src/handlers/handlerRemove.js&#45;&gt;client/src/data.js -->
<g id="edge7" class="edge">
<title>client/src/handlers/handlerRemove.js&#45;&gt;client/src/data.js</title>
<path fill="none" stroke="#000000" stroke-width="2" stroke-opacity="0.200000" d="M309.86,-107.17C326.51,-104.54 345.23,-101.57 360.69,-99.12"/>
<polygon fill="#000000" fill-opacity="0.200000" stroke="#000000" stroke-width="2" stroke-opacity="0.200000" points="361.06,-101.19 366.66,-98.18 360.41,-97.04 361.06,-101.19"/>
</g>
<!-- client/src/logic/isBookNotInTheList.js -->
<g id="node7" class="node">
<title>client/src/logic/isBookNotInTheList.js</title>
<g id="a_node7"><a xlink:href="../client/src/logic/isBookNotInTheList.js" xlink:title="isBookNotInTheList.js">
<path fill="#ffffcc" stroke="black" d="M439.34,-230.3C439.34,-230.3 348.71,-230.3 348.71,-230.3 345.61,-230.3 342.51,-227.2 342.51,-224.1 342.51,-224.1 342.51,-217.9 342.51,-217.9 342.51,-214.8 345.61,-211.7 348.71,-211.7 348.71,-211.7 439.34,-211.7 439.34,-211.7 442.44,-211.7 445.54,-214.8 445.54,-217.9 445.54,-217.9 445.54,-224.1 445.54,-224.1 445.54,-227.2 442.44,-230.3 439.34,-230.3"/>
<text text-anchor="middle" x="394.02" y="-218.3" font-family="Helvetica,sans-Serif" font-size="9.00">isBookNotInTheList.js</text>
</a>
</g>
</g>
<!-- client/src/handlers/handlerRemove.js&#45;&gt;client/src/logic/isBookNotInTheList.js -->
<g id="edge8" class="edge">
<title>client/src/handlers/handlerRemove.js&#45;&gt;client/src/logic/isBookNotInTheList.js</title>
<path fill="none" stroke="#000000" stroke-width="2" stroke-opacity="0.200000" d="M270.13,-123.43C277.31,-142.11 295.96,-183.82 326.01,-205 329.29,-207.31 332.87,-209.3 336.61,-211"/>
<polygon fill="#000000" fill-opacity="0.200000" stroke="#000000" stroke-width="2" stroke-opacity="0.200000" points="335.83,-212.95 342.18,-213.29 337.43,-209.06 335.83,-212.95"/>
</g>
<!-- client/src/init/index.js -->
<g id="node8" class="node">
<title>client/src/init/index.js</title>
<g id="a_node8"><a xlink:href="../client/src/init/index.js" xlink:title="index.js">
<path fill="#ffffcc" stroke="black" d="M79.8,-92.3C79.8,-92.3 38.2,-92.3 38.2,-92.3 35.1,-92.3 32,-89.2 32,-86.1 32,-86.1 32,-79.9 32,-79.9 32,-76.8 35.1,-73.7 38.2,-73.7 38.2,-73.7 79.8,-73.7 79.8,-73.7 82.9,-73.7 86,-76.8 86,-79.9 86,-79.9 86,-86.1 86,-86.1 86,-89.2 82.9,-92.3 79.8,-92.3"/>
<text text-anchor="middle" x="59" y="-80.3" font-family="Helvetica,sans-Serif" font-size="9.00">index.js</text>
</a>
</g>
</g>
<!-- client/src/listeners/listenerAdd.js -->
<g id="node9" class="node">
<title>client/src/listeners/listenerAdd.js</title>
<g id="a_node9"><a xlink:href="../client/src/listeners/listenerAdd.js" xlink:title="listenerAdd.js">
<path fill="#ffffcc" stroke="black" d="M182.56,-92.3C182.56,-92.3 124.94,-92.3 124.94,-92.3 121.84,-92.3 118.74,-89.2 118.74,-86.1 118.74,-86.1 118.74,-79.9 118.74,-79.9 118.74,-76.8 121.84,-73.7 124.94,-73.7 124.94,-73.7 182.56,-73.7 182.56,-73.7 185.66,-73.7 188.76,-76.8 188.76,-79.9 188.76,-79.9 188.76,-86.1 188.76,-86.1 188.76,-89.2 185.66,-92.3 182.56,-92.3"/>
<text text-anchor="middle" x="153.75" y="-80.3" font-family="Helvetica,sans-Serif" font-size="9.00">listenerAdd.js</text>
</a>
</g>
</g>
<!-- client/src/init/index.js&#45;&gt;client/src/listeners/listenerAdd.js -->
<g id="edge9" class="edge">
<title>client/src/init/index.js&#45;&gt;client/src/listeners/listenerAdd.js</title>
<path fill="none" stroke="#000000" stroke-width="2" stroke-opacity="0.200000" d="M86.33,-83C94.51,-83 103.72,-83 112.62,-83"/>
<polygon fill="#000000" fill-opacity="0.200000" stroke="#000000" stroke-width="2" stroke-opacity="0.200000" points="112.72,-85.1 118.72,-83 112.72,-80.9 112.72,-85.1"/>
</g>
<!-- client/src/listeners/listenerLoad.js -->
<g id="node10" class="node">
<title>client/src/listeners/listenerLoad.js</title>
<g id="a_node10"><a xlink:href="../client/src/listeners/listenerLoad.js" xlink:title="listenerLoad.js">
<path fill="#ffffcc" stroke="black" d="M184.56,-61.3C184.56,-61.3 122.94,-61.3 122.94,-61.3 119.84,-61.3 116.74,-58.2 116.74,-55.1 116.74,-55.1 116.74,-48.9 116.74,-48.9 116.74,-45.8 119.84,-42.7 122.94,-42.7 122.94,-42.7 184.56,-42.7 184.56,-42.7 187.66,-42.7 190.76,-45.8 190.76,-48.9 190.76,-48.9 190.76,-55.1 190.76,-55.1 190.76,-58.2 187.66,-61.3 184.56,-61.3"/>
<text text-anchor="middle" x="153.75" y="-49.3" font-family="Helvetica,sans-Serif" font-size="9.00">listenerLoad.js</text>
</a>
</g>
</g>
<!-- client/src/init/index.js&#45;&gt;client/src/listeners/listenerLoad.js -->
<g id="edge10" class="edge">
<title>client/src/init/index.js&#45;&gt;client/src/listeners/listenerLoad.js</title>
<path fill="none" stroke="#000000" stroke-width="2" stroke-opacity="0.200000" d="M85.71,-73.64C91.08,-71.74 96.72,-69.78 102,-68 106.72,-66.41 111.7,-64.79 116.63,-63.2"/>
<polygon fill="#000000" fill-opacity="0.200000" stroke="#000000" stroke-width="2" stroke-opacity="0.200000" points="117.29,-65.2 122.37,-61.37 116.01,-61.2 117.29,-65.2"/>
</g>
<!-- client/src/listeners/listenerRemove.js -->
<g id="node11" class="node">
<title>client/src/listeners/listenerRemove.js</title>
<g id="a_node11"><a xlink:href="../client/src/listeners/listenerRemove.js" xlink:title="listenerRemove.js">
<path fill="#ffffcc" stroke="black" d="M191.05,-123.3C191.05,-123.3 116.45,-123.3 116.45,-123.3 113.35,-123.3 110.25,-120.2 110.25,-117.1 110.25,-117.1 110.25,-110.9 110.25,-110.9 110.25,-107.8 113.35,-104.7 116.45,-104.7 116.45,-104.7 191.05,-104.7 191.05,-104.7 194.15,-104.7 197.25,-107.8 197.25,-110.9 197.25,-110.9 197.25,-117.1 197.25,-117.1 197.25,-120.2 194.15,-123.3 191.05,-123.3"/>
<text text-anchor="middle" x="153.75" y="-111.3" font-family="Helvetica,sans-Serif" font-size="9.00">listenerRemove.js</text>
</a>
</g>
</g>
<!-- client/src/init/index.js&#45;&gt;client/src/listeners/listenerRemove.js -->
<g id="edge11" class="edge">
<title>client/src/init/index.js&#45;&gt;client/src/listeners/listenerRemove.js</title>
<path fill="none" stroke="#000000" stroke-width="2" stroke-opacity="0.200000" d="M85.71,-92.36C91.08,-94.26 96.72,-96.22 102,-98 106.72,-99.59 111.7,-101.21 116.63,-102.8"/>
<polygon fill="#000000" fill-opacity="0.200000" stroke="#000000" stroke-width="2" stroke-opacity="0.200000" points="116.01,-104.8 122.37,-104.63 117.29,-100.8 116.01,-104.8"/>
</g>
<!-- client/src/listeners/listenerAdd.js&#45;&gt;client/src/handlers/handlerAdd.js -->
<g id="edge12" class="edge">
<title>client/src/listeners/listenerAdd.js&#45;&gt;client/src/handlers/handlerAdd.js</title>
<path fill="none" stroke="#000000" stroke-width="2" stroke-opacity="0.200000" d="M188.95,-83C200.02,-83 212.41,-83 223.91,-83"/>
<polygon fill="#000000" fill-opacity="0.200000" stroke="#000000" stroke-width="2" stroke-opacity="0.200000" points="224.2,-85.1 230.19,-83 224.19,-80.9 224.2,-85.1"/>
</g>
<!-- client/src/listeners/listenerLoad.js&#45;&gt;client/src/handlers/handlerLoad.js -->
<g id="edge13" class="edge">
<title>client/src/listeners/listenerLoad.js&#45;&gt;client/src/handlers/handlerLoad.js</title>
<path fill="none" stroke="#000000" stroke-width="2" stroke-opacity="0.200000" d="M190.77,-52C200.63,-52 211.42,-52 221.63,-52"/>
<polygon fill="#000000" fill-opacity="0.200000" stroke="#000000" stroke-width="2" stroke-opacity="0.200000" points="221.9,-54.1 227.9,-52 221.9,-49.9 221.9,-54.1"/>
</g>
<!-- client/src/listeners/listenerRemove.js&#45;&gt;client/src/handlers/handlerRemove.js -->
<g id="edge14" class="edge">
<title>client/src/listeners/listenerRemove.js&#45;&gt;client/src/handlers/handlerRemove.js</title>
<path fill="none" stroke="#000000" stroke-width="2" stroke-opacity="0.200000" d="M197.28,-114C203.27,-114 209.46,-114 215.56,-114"/>
<polygon fill="#000000" fill-opacity="0.200000" stroke="#000000" stroke-width="2" stroke-opacity="0.200000" points="215.61,-116.1 221.61,-114 215.61,-111.9 215.61,-116.1"/>
</g>
<!-- client/src/logic/isBookNotInTheList.test.js -->
<g id="node12" class="node">
<title>client/src/logic/isBookNotInTheList.test.js</title>
<g id="a_node12"><a xlink:href="../client/src/logic/isBookNotInTheList.test.js" xlink:title="isBookNotInTheList.test.js">
<path fill="#ccffcc" stroke="black" d="M447.84,-168.3C447.84,-168.3 340.2,-168.3 340.2,-168.3 337.1,-168.3 334,-165.2 334,-162.1 334,-162.1 334,-155.9 334,-155.9 334,-152.8 337.1,-149.7 340.2,-149.7 340.2,-149.7 447.84,-149.7 447.84,-149.7 450.94,-149.7 454.04,-152.8 454.04,-155.9 454.04,-155.9 454.04,-162.1 454.04,-162.1 454.04,-165.2 450.94,-168.3 447.84,-168.3"/>
<text text-anchor="middle" x="394.02" y="-156.3" font-family="Helvetica,sans-Serif" font-size="9.00">isBookNotInTheList.test.js</text>
</a>
</g>
</g>
<!-- client/src/logic/validityCheck.test.js -->
<g id="node13" class="node">
<title>client/src/logic/validityCheck.test.js</title>
<g id="a_node13"><a xlink:href="../client/src/logic/validityCheck.test.js" xlink:title="validityCheck.test.js">
<path fill="#ccffcc" stroke="black" d="M435.33,-137.3C435.33,-137.3 352.72,-137.3 352.72,-137.3 349.62,-137.3 346.51,-134.2 346.51,-131.1 346.51,-131.1 346.51,-124.9 346.51,-124.9 346.51,-121.8 349.62,-118.7 352.72,-118.7 352.72,-118.7 435.33,-118.7 435.33,-118.7 438.43,-118.7 441.53,-121.8 441.53,-124.9 441.53,-124.9 441.53,-131.1 441.53,-131.1 441.53,-134.2 438.43,-137.3 435.33,-137.3"/>
<text text-anchor="middle" x="394.02" y="-125.3" font-family="Helvetica,sans-Serif" font-size="9.00">validityCheck.test.js</text>
</a>
</g>
</g>
</g>
</svg>
